<svg xmlns="http://www.w3.org/2000/svg" viewBox="0 0 78.81 85.55">
	<defs>
		<style>
			.cls-1{fill:#00e5ff;}
		</style>
	</defs>
	<g id="Layer_2" data-name="Layer 2">
		<g id="_1" data-name=" 1">
			<path class="cls-1" d="M.14,15.86V62.71a2.57,2.57,0,0,0,4,2.11L21.37,53a2.55,2.55,0,0,0,1.11-2.11v-20Z" />
			<path class="cls-1" d="M43.46,45,3.7,71.49a3.37,3.37,0,0,0,0,5.6l10.15,6.82a9.63,9.63,0,0,0,10.76,0L63.19,58.22Z" />
			<path class="cls-1" d="M65.93,56.44.69,12.62a1.57,1.57,0,0,1,0-2.6L13,1.67a9.64,9.64,0,0,1,10.81,0L75,36.07a8.6,8.6,0,0,1,0,14.27Z" />
		</g>
	</g>
</svg>
