<svg xmlns="http://www.w3.org/2000/svg" viewBox="0 0 80.8 87.57">
	<defs>
		<style>
			.cls-1{fill:#ffffff;}
		</style>
	</defs>
	<g id="Layer_2" data-name="Layer 2">
		<g id="_1" data-name=" 1">
			<path class="cls-1" d="M3.7,67.29A3.57,3.57,0,0,1,.13,63.72V13a1,1,0,0,1,1.92-.41.62.62,0,0,0,.19.25L24,27.44a1,1,0,0,1,.45.83v23.6a3.55,3.55,0,0,1-1.55,2.94L5.73,66.66A3.58,3.58,0,0,1,3.7,67.29ZM2.13,15.14V63.72A1.58,1.58,0,0,0,4.59,65L21.8,53.17a1.6,1.6,0,0,0,.68-1.3V28.81Z" />
			<path class="cls-1" d="M20.22,87.57a10.68,10.68,0,0,1-5.94-1.81L4.13,78.93a4.37,4.37,0,0,1,0-7.25h0L46.59,43.34a1,1,0,0,1,1.12,0L67.44,56.6a1,1,0,0,1,0,1.66L26.16,85.76A10.63,10.63,0,0,1,20.22,87.57Zm-15-14.23a2.38,2.38,0,0,0,0,3.93L15.4,84.1a8.65,8.65,0,0,0,9.65,0l40-26.67-17.93-12-41.91,28Z" />
			<path class="cls-1" d="M66.92,58.46a1,1,0,0,1-.54-.16l0,0a1,1,0,0,1,0-1.67l9.12-6.08a1,1,0,0,1,1.11,1.67l-9.08,6.1A1,1,0,0,1,66.92,58.46Z" />
			<path class="cls-1" d="M66.88,58.43a1,1,0,0,1-.55-.17L46.67,45.06,46.59,45,1.13,14.46a2.58,2.58,0,0,1,0-4.26L13.39,1.85a10.62,10.62,0,0,1,11.93,0L67.38,30.1a.31.31,0,0,1,.1,0l9.08,6.1a9.61,9.61,0,0,1,0,15.94l-9.12,6.07A1,1,0,0,1,66.88,58.43ZM47.63,43.3l.08.05L66.88,56.23l8.57-5.71a7.6,7.6,0,0,0,0-12.61l-9-6-.1-.06L24.2,3.48a8.61,8.61,0,0,0-9.69,0L2.24,11.86a.57.57,0,0,0-.19.7.59.59,0,0,0,.2.24Z" />
		</g>
	</g>
</svg>
