<svg xmlns="http://www.w3.org/2000/svg" viewBox="0 0 127.73 42.68">
	<defs>
		<style>
			.cls-1{fill:#fff;}
		</style>
	</defs>
	<g id="Layer_2" data-name="Layer 2">
		<g id="Layer_1-2" data-name="Layer 1">
			<path class="cls-1" d="M16.86,30.36V28.69c-.15.14-.4.29-.74.54a12.09,12.09,0,0,1-5.33,1.38A10.61,10.61,0,0,1,0,19.86,10.67,10.67,0,0,1,10.79,9.12,11,11,0,0,1,18.38,12a10.24,10.24,0,0,1,3.21,8V30.36Zm-6.07-4.29a6,6,0,0,0,6.07-6.21,6,6,0,0,0-6.07-6.21,6,6,0,0,0-6.06,6.21A6,6,0,0,0,10.79,26.07Z" />
			<path class="cls-1" d="M63.76,33c.15,3.3,2,5.37,5.28,5.37,3.5,0,5.27-2.26,5.27-5.86V28.64c-.15.14-.39.29-.74.54a12,12,0,0,1-5.32,1.38A10.61,10.61,0,0,1,57.46,19.81,10.67,10.67,0,0,1,68.25,9.07,11,11,0,0,1,75.84,12,10.23,10.23,0,0,1,79,20V32.53a9.66,9.66,0,0,1-2.86,7.39A9.82,9.82,0,0,1,69,42.68a10,10,0,0,1-7-2.61,9.77,9.77,0,0,1-3-7Zm4.49-7a6,6,0,0,0,6.06-6.21,6.06,6.06,0,1,0-12.12,0A6,6,0,0,0,68.25,26Z" />
			<path class="cls-1" d="M114.58,30.48h-4.74V19.15c0-3.35.89-5.82,2.62-7.44a9.28,9.28,0,0,1,12.61,0c1.78,1.62,2.66,4.14,2.66,7.44V30.48H123V19.15c0-3.5-1.67-5.37-4.23-5.37s-4.19,1.82-4.19,5.37Z" />
			<path class="cls-1" d="M31,30.61H26.32V18.09c0-6.06,3.4-8.48,8-8.48h1.14v4.54h-.89c-2.37,0-3.55,1.33-3.55,3.94Z" />
			<path class="cls-1" d="M49.29,25.83l3.11,4.53H48.3c-4.78,0-8.13-2.37-8.13-8.43V0l4.68,3.74V9.36h4l3.74,4.54H44.85v8c0,2.61,1.13,3.9,3.45,3.9Z" />
			<path class="cls-1" d="M100.37,22.2h0l-.26.74a6.13,6.13,0,0,1-3.89,3,6.06,6.06,0,0,1-6.72-2.65l15.62-4.15c-.42-2-.86-6.25-5.45-8.81a10.12,10.12,0,0,0-7.83-.87,10.34,10.34,0,0,0-6.57,5,10.27,10.27,0,0,0-1.1,8.14A10.6,10.6,0,0,0,97.3,30.26a11.19,11.19,0,0,0,6-4.11,13,13,0,0,0,1.27-2.53c.22-.61.36-1.06.45-1.42Zm-11.92-3A5.69,5.69,0,0,1,93,13.81c2.81-.74,5.59.5,6.52,2.45Z" />
		</g>
	</g>
</svg>
