<svg id="visual" viewBox="0 0 1920 180" width="1920" height="180"
  xmlns="http://www.w3.org/2000/svg"
  xmlns:xlink="http://www.w3.org/1999/xlink" version="1.1">
  <path d="M0 69L175 69L175 60L349 60L349 70L524 70L524 52L698 52L698 53L873 53L873 63L1047 63L1047 72L1222 72L1222 55L1396 55L1396 70L1571 70L1571 62L1745 62L1745 58L1920 58L1920 63L1920 181L1920 181L1745 181L1745 181L1571 181L1571 181L1396 181L1396 181L1222 181L1222 181L1047 181L1047 181L873 181L873 181L698 181L698 181L524 181L524 181L349 181L349 181L175 181L175 181L0 181Z" fill="#46bdc6"></path>
  <path d="M0 94L175 94L175 85L349 85L349 95L524 95L524 93L698 93L698 87L873 87L873 99L1047 99L1047 87L1222 87L1222 92L1396 92L1396 90L1571 90L1571 91L1745 91L1745 92L1920 92L1920 86L1920 181L1920 181L1745 181L1745 181L1571 181L1571 181L1396 181L1396 181L1222 181L1222 181L1047 181L1047 181L873 181L873 181L698 181L698 181L524 181L524 181L349 181L349 181L175 181L175 181L0 181Z" fill="#37a0a8"></path>
  <path d="M0 122L175 122L175 112L349 112L349 110L524 110L524 116L698 116L698 115L873 115L873 113L1047 113L1047 122L1222 122L1222 108L1396 108L1396 118L1571 118L1571 114L1745 114L1745 113L1920 113L1920 115L1920 181L1920 181L1745 181L1745 181L1571 181L1571 181L1396 181L1396 181L1222 181L1222 181L1047 181L1047 181L873 181L873 181L698 181L698 181L524 181L524 181L349 181L349 181L175 181L175 181L0 181Z" fill="#29848a"></path>
  <path d="M0 138L175 138L175 146L349 146L349 144L524 144L524 141L698 141L698 150L873 150L873 139L1047 139L1047 139L1222 139L1222 148L1396 148L1396 145L1571 145L1571 139L1745 139L1745 145L1920 145L1920 139L1920 181L1920 181L1745 181L1745 181L1571 181L1571 181L1396 181L1396 181L1222 181L1222 181L1047 181L1047 181L873 181L873 181L698 181L698 181L524 181L524 181L349 181L349 181L175 181L175 181L0 181Z" fill="#1a696e"></path>
</svg>