<?xml version="1.0" ?><svg viewBox="0 0 32 32" xmlns="http://www.w3.org/2000/svg"><defs><style>.cls-1{fill:#101820;}</style></defs><title/><g data-name="Layer 56" id="Layer_56"><path class="cls-1" d="M16,31a1,1,0,0,1-.6-.2l-4-3A1,1,0,0,1,11,27V17.47a9,9,0,1,1,10,0V19a1,1,0,0,1-.29.71L19.41,21l1.3,1.29a1,1,0,0,1,0,1.42L19.41,25l1.3,1.29a1,1,0,0,1,.29.78,1,1,0,0,1-.4.73l-4,3A1,1,0,0,1,16,31Zm-3-4.5,3,2.25,2.48-1.86-1.19-1.18a1,1,0,0,1,0-1.42L18.59,23l-1.3-1.29a1,1,0,0,1,0-1.42L19,18.59V16.92a1,1,0,0,1,.5-.86,7,7,0,1,0-7,0,1,1,0,0,1,.5.86ZM20,19h0Z"/><circle class="cls-1" cx="16" cy="8" r="1"/><path class="cls-1" d="M16,10a2,2,0,1,1,2-2A2,2,0,0,1,16,10Zm0-2Z"/></g></svg>