<svg id="visual" viewBox="0 0 1920 180" width="1920" height="180" xmlns="http://www.w3.org/2000/svg" xmlns:xlink="http://www.w3.org/1999/xlink" version="1.1">
  <rect x="0" y="0" width="1920" height="180" fill="#151719"></rect>
  <path d="M0 33L40 35.7C80 38.3 160 43.7 240 40.5C320 37.3 400 25.7 480 21.7C560 17.7 640 21.3 720 32.3C800 43.3 880 61.7 960 69.7C1040 77.7 1120 75.3 1200 79.2C1280 83 1360 93 1440 99.8C1520 106.7 1600 110.3 1680 94.8C1760 79.3 1840 44.7 1880 27.3L1920 10L1920 181L1880 181C1840 181 1760 181 1680 181C1600 181 1520 181 1440 181C1360 181 1280 181 1200 181C1120 181 1040 181 960 181C880 181 800 181 720 181C640 181 560 181 480 181C400 181 320 181 240 181C160 181 80 181 40 181L0 181Z" fill="#DCDEAC"></path>
  <path d="M0 135L40 128C80 121 160 107 240 98C320 89 400 85 480 79.7C560 74.3 640 67.7 720 61.2C800 54.7 880 48.3 960 45.2C1040 42 1120 42 1200 54.5C1280 67 1360 92 1440 101.7C1520 111.3 1600 105.7 1680 94.3C1760 83 1840 66 1880 57.5L1920 49L1920 181L1880 181C1840 181 1760 181 1680 181C1600 181 1520 181 1440 181C1360 181 1280 181 1200 181C1120 181 1040 181 960 181C880 181 800 181 720 181C640 181 560 181 480 181C400 181 320 181 240 181C160 181 80 181 40 181L0 181Z" fill="#2DEBAE"></path>
  <path d="M0 76L40 84.7C80 93.3 160 110.7 240 111.8C320 113 400 98 480 102C560 106 640 129 720 134.8C800 140.7 880 129.3 960 120.3C1040 111.3 1120 104.7 1200 100.3C1280 96 1360 94 1440 103C1520 112 1600 132 1680 130.3C1760 128.7 1840 105.3 1880 93.7L1920 82L1920 181L1880 181C1840 181 1760 181 1680 181C1600 181 1520 181 1440 181C1360 181 1280 181 1200 181C1120 181 1040 181 960 181C880 181 800 181 720 181C640 181 560 181 480 181C400 181 320 181 240 181C160 181 80 181 40 181L0 181Z" fill="#2DA89C"></path>
  <path d="M0 125L40 119.5C80 114 160 103 240 102.2C320 101.3 400 110.7 480 111.2C560 111.7 640 103.3 720 106.7C800 110 880 125 960 127.7C1040 130.3 1120 120.7 1200 114.3C1280 108 1360 105 1440 109.2C1520 113.3 1600 124.7 1680 126C1760 127.3 1840 118.7 1880 114.3L1920 110L1920 181L1880 181C1840 181 1760 181 1680 181C1600 181 1520 181 1440 181C1360 181 1280 181 1200 181C1120 181 1040 181 960 181C880 181 800 181 720 181C640 181 560 181 480 181C400 181 320 181 240 181C160 181 80 181 40 181L0 181Z" fill="#1E6075"></path>
  <path d="M0 177L40 171.3C80 165.7 160 154.3 240 151.8C320 149.3 400 155.7 480 157.2C560 158.7 640 155.3 720 156.3C800 157.3 880 162.7 960 159.3C1040 156 1120 144 1200 139C1280 134 1360 136 1440 143.2C1520 150.3 1600 162.7 1680 160.8C1760 159 1840 143 1880 135L1920 127L1920 181L1880 181C1840 181 1760 181 1680 181C1600 181 1520 181 1440 181C1360 181 1280 181 1200 181C1120 181 1040 181 960 181C880 181 800 181 720 181C640 181 560 181 480 181C400 181 320 181 240 181C160 181 80 181 40 181L0 181Z" fill="#1C264A"></path>
</svg>