<?xml version="1.0"?>
<svg height="256" id="log" viewBox="0 0 256 256" width="256" xmlns="http://www.w3.org/2000/svg">
  <title />
  <g>
    <path d="M184,168a8.009,8.009,0,0,0,8-8V112a8.009,8.009,0,0,0-8-8H48a8.009,8.009,0,0,0-8,8v48a8.009,8.009,0,0,0,8,8Zm-50.284-41.045a13.892,13.892,0,0,1,6.037-5.865,16.292,16.292,0,0,1,7.541-1.568q5.865,0,9.163,2.46a11.111,11.111,0,0,1,4.243,6.8l-6.316,1.182a6.673,6.673,0,0,0-2.5-3.663,7.567,7.567,0,0,0-4.587-1.343,8.617,8.617,0,0,0-6.628,2.643q-2.46,2.643-2.46,7.842,0,5.607,2.492,8.411a8.321,8.321,0,0,0,6.531,2.8,10.949,10.949,0,0,0,4.007-.784,13.722,13.722,0,0,0,3.448-1.9v-4H147.4v-5.307h13.707v12.547a17.254,17.254,0,0,1-5.79,3.405,21.079,21.079,0,0,1-7.681,1.472,17.237,17.237,0,0,1-8.615-2.073,13.177,13.177,0,0,1-5.521-5.93,19.159,19.159,0,0,1-1.848-8.39A18.13,18.13,0,0,1,133.716,126.955Zm-35.261.967a14.815,14.815,0,0,1,2.933-4.318,12.267,12.267,0,0,1,4.071-2.836,17.293,17.293,0,0,1,6.789-1.246q6.961,0,11.14,4.318t4.179,12.01q0,7.627-4.146,11.935t-11.086,4.308q-7.025,0-11.172-4.286T97.016,136A20.027,20.027,0,0,1,98.456,127.922ZM71.38,120.316h6.359v25.932H93.552v5.307H71.38Z" fill="#ffffff" />
    <path d="M112.313,146.656a7.981,7.981,0,0,0,6.241-2.739q2.438-2.739,2.438-8.218,0-5.414-2.374-8.078a8.8,8.8,0,0,0-12.644.032q-2.407,2.7-2.406,8.132,0,5.35,2.471,8.11A8.049,8.049,0,0,0,112.313,146.656Z"  fill="#ffffff" />
    <path d="M200,8H64A16.018,16.018,0,0,0,48,24V96h8V24a8.009,8.009,0,0,1,8-8H200a8.009,8.009,0,0,1,8,8V191.029a8.113,8.113,0,0,1-.065.971H172a12.014,12.014,0,0,0-12,12v35.935a8.113,8.113,0,0,1-.971.065H64a8.009,8.009,0,0,1-8-8V176H48v56a16.018,16.018,0,0,0,16,16h95.029a15.9,15.9,0,0,0,11.314-4.686l40.971-40.971A15.9,15.9,0,0,0,216,191.029V24A16.018,16.018,0,0,0,200,8Z"  fill="#ffffff" />
  </g>
</svg>